<svg width="24" height="24" viewBox="0 0 24 24" fill="none" xmlns="http://www.w3.org/2000/svg">
<g clip-path="url(#clip0_413_2214)">
<path d="M20.3333 16.0999V18.5999C20.3343 18.832 20.2867 19.0617 20.1937 19.2744C20.1008 19.487 19.9644 19.6779 19.7934 19.8348C19.6224 19.9917 19.4205 20.1112 19.2006 20.1855C18.9808 20.2599 18.7478 20.2875 18.5167 20.2666C15.9523 19.988 13.4892 19.1117 11.325 17.7083C9.31151 16.4288 7.60443 14.7217 6.32499 12.7083C4.91663 10.5343 4.04019 8.05908 3.76665 5.48325C3.74583 5.25281 3.77321 5.02055 3.84707 4.80127C3.92092 4.58199 4.03963 4.38049 4.19562 4.2096C4.35162 4.03871 4.54149 3.90218 4.75314 3.80869C4.9648 3.7152 5.1936 3.6668 5.42499 3.66658H7.92498C8.32941 3.6626 8.72148 3.80582 9.02812 4.06953C9.33476 4.33324 9.53505 4.69946 9.59165 5.09992C9.69717 5.89997 9.89286 6.68552 10.175 7.44158C10.2871 7.73985 10.3114 8.06401 10.2449 8.37565C10.1784 8.68729 10.024 8.97334 9.79998 9.19992L8.74165 10.2583C9.92795 12.3445 11.6554 14.072 13.7417 15.2583L14.8 14.1999C15.0266 13.9759 15.3126 13.8215 15.6243 13.755C15.9359 13.6885 16.26 13.7128 16.5583 13.8249C17.3144 14.107 18.0999 14.3027 18.9 14.4083C19.3048 14.4654 19.6745 14.6693 19.9388 14.9812C20.203 15.2931 20.3435 15.6912 20.3333 16.0999Z" stroke="#323232" stroke-width="2" stroke-linecap="round" stroke-linejoin="round"/>
</g>
<defs>
<clipPath id="clip0_413_2214">
<rect width="20" height="20" fill="white" transform="translate(2 2)"/>
</clipPath>
</defs>
</svg>
