<svg width="85" height="29" viewBox="0 0 85 29" fill="none" xmlns="http://www.w3.org/2000/svg">
<path d="M1.33201 21.924C0.948012 21.924 0.660012 21.684 0.468012 21.204C0.300012 20.7 0.216012 20.124 0.216012 19.476C0.216012 18.828 0.300012 18.264 0.468012 17.784C0.660012 17.28 0.948012 17.028 1.33201 17.028C0.900012 17.028 0.564012 16.812 0.324012 16.38C0.108012 15.948 1.17123e-05 15.456 1.17123e-05 14.904C1.17123e-05 14.328 0.108012 13.824 0.324012 13.392C0.564012 12.96 0.900012 12.744 1.33201 12.744C1.04401 12.576 0.912012 12.3 0.936012 11.916C0.984012 11.508 1.11601 11.1 1.33201 10.692C1.57201 10.284 1.84801 9.97202 2.16001 9.75602C2.49601 9.51602 2.80801 9.48002 3.09601 9.64802C3.09601 9.19202 3.22801 8.85602 3.49201 8.64002C3.78001 8.40002 4.09201 8.28002 4.42801 8.28002C4.78801 8.28002 5.10001 8.40002 5.36401 8.64002C5.65201 8.85602 5.79601 9.19202 5.79601 9.64802C5.79601 9.04802 5.90401 8.65202 6.12001 8.46002C6.36001 8.26802 6.60001 8.26802 6.84001 8.46002C7.08001 8.65202 7.20001 9.04802 7.20001 9.64802C7.56001 9.40802 7.87201 9.34802 8.13601 9.46802C8.42401 9.56402 8.61601 9.73202 8.71201 9.97202C9.09601 9.63602 9.57601 9.36002 10.152 9.14402C10.752 8.92802 11.304 8.82002 11.808 8.82002C12.312 8.82002 12.636 9.00002 12.78 9.36002C12.876 9.04802 13.116 8.85602 13.5 8.78402C13.908 8.71202 14.364 8.72402 14.868 8.82002C15.372 8.91602 15.864 9.07202 16.344 9.28802C16.824 9.50402 17.196 9.75602 17.46 10.044C17.748 10.332 17.844 10.632 17.748 10.944C18.228 10.704 18.624 10.62 18.936 10.692C19.272 10.62 19.572 10.728 19.836 11.016C19.668 10.704 19.644 10.428 19.764 10.188C19.884 9.94802 20.088 9.82802 20.376 9.82802C20.664 9.82802 20.964 9.99602 21.276 10.332C21.156 9.99602 21.204 9.68402 21.42 9.39602C21.66 9.10802 21.972 8.89202 22.356 8.74802C22.764 8.60402 23.148 8.56802 23.508 8.64002C23.868 8.71202 24.108 8.92802 24.228 9.28802C24.348 8.97602 24.636 8.80802 25.092 8.78402C25.548 8.73602 26.04 8.80802 26.568 9.00002C27.12 9.19202 27.576 9.44402 27.936 9.75602C28.296 10.044 28.416 10.344 28.296 10.656C28.704 10.488 29.1 10.548 29.484 10.836C29.868 11.124 30.18 11.532 30.42 12.06C30.66 12.564 30.768 13.056 30.744 13.536C30.72 14.016 30.504 14.352 30.096 14.544C30.504 14.52 30.84 14.688 31.104 15.048C31.368 15.384 31.548 15.816 31.644 16.344C31.74 16.848 31.752 17.364 31.68 17.892C31.608 18.396 31.452 18.828 31.212 19.188C30.972 19.548 30.648 19.728 30.24 19.728C30.936 19.728 31.392 19.896 31.608 20.232C31.848 20.568 31.848 20.904 31.608 21.24C31.392 21.576 30.936 21.744 30.24 21.744C30.624 21.744 30.912 21.888 31.104 22.176C31.296 22.44 31.392 22.752 31.392 23.112C31.392 23.472 31.296 23.796 31.104 24.084C30.912 24.348 30.624 24.48 30.24 24.48C30.768 24.648 31.068 24.936 31.14 25.344C31.212 25.752 31.104 26.1 30.816 26.388C30.528 26.676 30.12 26.736 29.592 26.568C29.592 27.048 29.412 27.408 29.052 27.648C28.692 27.888 28.272 28.008 27.792 28.008C27.312 28.008 26.892 27.888 26.532 27.648C26.172 27.408 25.992 27.048 25.992 26.568C25.968 27.048 25.764 27.36 25.38 27.504C25.02 27.672 24.648 27.66 24.264 27.468C23.904 27.3 23.736 26.976 23.76 26.496C23.376 26.496 23.088 26.304 22.896 25.92C22.728 25.512 22.644 25.056 22.644 24.552C22.644 24.048 22.728 23.604 22.896 23.22C23.088 22.812 23.376 22.608 23.76 22.608C23.4 22.608 23.124 22.368 22.932 21.888C22.74 21.384 22.632 20.796 22.608 20.124C22.584 19.428 22.644 18.792 22.788 18.216C22.932 17.616 23.16 17.244 23.472 17.1C23.184 17.124 22.908 17.004 22.644 16.74C22.404 16.452 22.224 16.128 22.104 15.768C21.816 16.104 21.468 16.404 21.06 16.668C20.652 16.932 20.28 17.088 19.944 17.136C20.256 17.376 20.34 17.688 20.196 18.072C20.052 18.432 19.692 18.612 19.116 18.612C19.476 18.612 19.74 18.804 19.908 19.188C20.076 19.572 20.16 20.028 20.16 20.556C20.16 21.06 20.076 21.504 19.908 21.888C19.74 22.272 19.476 22.464 19.116 22.464C19.5 22.464 19.776 22.656 19.944 23.04C20.136 23.4 20.232 23.82 20.232 24.3C20.232 24.756 20.136 25.164 19.944 25.524C19.776 25.884 19.5 26.064 19.116 26.064C19.188 26.52 19.104 26.88 18.864 27.144C18.624 27.408 18.312 27.576 17.928 27.648C17.568 27.72 17.22 27.66 16.884 27.468C16.572 27.3 16.38 27 16.308 26.568C16.308 27.072 16.128 27.456 15.768 27.72C15.432 27.984 15.036 28.116 14.58 28.116C14.124 28.116 13.716 27.984 13.356 27.72C13.02 27.456 12.852 27.072 12.852 26.568C12.06 26.832 11.628 26.856 11.556 26.64C11.484 26.424 11.844 26.184 12.636 25.92C12.132 25.92 11.796 25.788 11.628 25.524C11.46 25.26 11.46 24.996 11.628 24.732C11.796 24.468 12.132 24.336 12.636 24.336C12.372 24.336 12.156 24.156 11.988 23.796C11.844 23.436 11.748 22.98 11.7 22.428C11.652 21.876 11.652 21.336 11.7 20.808C11.748 20.256 11.844 19.8 11.988 19.44C12.156 19.08 12.372 18.9 12.636 18.9C12.252 18.9 11.976 18.792 11.808 18.576C11.664 18.336 11.628 18.096 11.7 17.856C11.796 17.592 12 17.424 12.312 17.352C12.048 17.328 11.784 17.148 11.52 16.812C11.256 16.452 11.064 16.068 10.944 15.66C10.656 15.996 10.284 16.284 9.82801 16.524C9.37201 16.74 8.95201 16.8 8.56801 16.704C8.76001 17.016 8.89201 17.448 8.96401 18C9.03601 18.528 9.04801 19.068 9.00001 19.62C8.95201 20.172 8.83201 20.652 8.64001 21.06C8.47201 21.444 8.24401 21.624 7.95601 21.6C8.38801 21.6 8.66401 21.78 8.78401 22.14C8.92801 22.5 8.92801 22.86 8.78401 23.22C8.66401 23.58 8.38801 23.76 7.95601 23.76C8.31601 23.88 8.54401 24.108 8.64001 24.444C8.73601 24.756 8.73601 25.104 8.64001 25.488C8.54401 25.848 8.36401 26.148 8.10001 26.388C7.83601 26.604 7.52401 26.664 7.16401 26.568C7.16401 27.072 7.02001 27.444 6.73201 27.684C6.44401 27.924 6.10801 28.044 5.72401 28.044C5.34001 28.044 5.00401 27.924 4.71601 27.684C4.42801 27.444 4.28401 27.072 4.28401 26.568C4.28401 26.976 4.14001 27.264 3.85201 27.432C3.56401 27.576 3.22801 27.516 2.84401 27.252C2.46001 26.964 2.11201 26.4 1.80001 25.56C1.51201 24.696 1.35601 23.484 1.33201 21.924ZM40.8412 26.64C40.7212 27 40.4932 27.24 40.1572 27.36C39.8452 27.456 39.5092 27.444 39.1492 27.324C38.8132 27.204 38.5372 27.012 38.3212 26.748C38.1292 26.46 38.0932 26.136 38.2132 25.776C37.9972 25.968 37.7092 25.98 37.3492 25.812C36.9892 25.644 36.6172 25.38 36.2332 25.02C35.8732 24.66 35.5492 24.264 35.2612 23.832C34.9972 23.376 34.8172 22.956 34.7212 22.572C34.6492 22.188 34.7212 21.912 34.9372 21.744C34.2892 21.84 33.8212 21.744 33.5332 21.456C33.2692 21.144 33.2212 20.808 33.3892 20.448C33.5572 20.064 33.9652 19.824 34.6132 19.728C34.2532 19.728 33.9772 19.596 33.7852 19.332C33.6172 19.068 33.5212 18.768 33.4972 18.432C33.4972 18.072 33.5812 17.76 33.7492 17.496C33.9412 17.208 34.2172 17.064 34.5772 17.064C34.1932 16.992 33.9292 16.776 33.7852 16.416C33.6652 16.056 33.6412 15.672 33.7132 15.264C33.8092 14.832 33.9772 14.472 34.2172 14.184C34.4812 13.896 34.8052 13.788 35.1892 13.86C34.7812 13.596 34.5532 13.284 34.5052 12.924C34.4572 12.564 34.5172 12.252 34.6852 11.988C34.8772 11.7 35.1412 11.52 35.4772 11.448C35.8372 11.352 36.2212 11.436 36.6292 11.7C36.4132 11.388 36.3532 11.088 36.4492 10.8C36.5452 10.488 36.7252 10.248 36.9892 10.08C37.2532 9.88802 37.5412 9.80402 37.8532 9.82802C38.1652 9.85202 38.4292 10.02 38.6452 10.332C38.4772 9.82802 38.4892 9.45602 38.6812 9.21602C38.8732 8.95202 39.1132 8.85602 39.4012 8.92802C39.7132 9.00002 39.9652 9.28802 40.1572 9.79202C40.0852 9.40802 40.1452 9.10802 40.3372 8.89202C40.5292 8.67602 40.7692 8.54402 41.0572 8.49602C41.3692 8.42402 41.6572 8.46002 41.9212 8.60402C42.1852 8.74802 42.3532 9.00002 42.4252 9.36002C42.4252 9.00002 42.5932 8.73602 42.9292 8.56802C43.2892 8.37602 43.6972 8.28002 44.1532 8.28002C44.6092 8.28002 45.0052 8.37602 45.3412 8.56802C45.7012 8.73602 45.8812 9.00002 45.8812 9.36002C45.9772 8.85602 46.2052 8.50802 46.5652 8.31602C46.9492 8.12402 47.3452 8.07602 47.7532 8.17202C48.1612 8.24402 48.4852 8.44802 48.7252 8.78402C48.9892 9.09602 49.0732 9.51602 48.9772 10.044C49.1452 9.70802 49.3852 9.52802 49.6972 9.50402C50.0332 9.48002 50.3452 9.55202 50.6332 9.72002C50.9452 9.86402 51.1612 10.08 51.2812 10.368C51.4252 10.656 51.4012 10.968 51.2092 11.304C51.5932 11.04 51.9772 10.992 52.3612 11.16C52.7452 11.304 53.0572 11.556 53.2972 11.916C53.5612 12.276 53.7052 12.672 53.7292 13.104C53.7532 13.512 53.5732 13.836 53.1892 14.076C53.5972 14.052 53.9332 14.196 54.1972 14.508C54.4852 14.82 54.6892 15.228 54.8092 15.732C54.9532 16.212 55.0132 16.716 54.9892 17.244C54.9652 17.748 54.8452 18.18 54.6292 18.54C54.4372 18.9 54.1372 19.104 53.7292 19.152C54.2332 19.248 54.5692 19.5 54.7372 19.908C54.9052 20.292 54.9412 20.724 54.8452 21.204C54.7732 21.66 54.5692 22.044 54.2332 22.356C53.9212 22.668 53.5252 22.776 53.0452 22.68C53.4052 22.92 53.5972 23.208 53.6212 23.544C53.6692 23.856 53.5972 24.144 53.4052 24.408C53.2132 24.672 52.9612 24.852 52.6492 24.948C52.3372 25.02 52.0012 24.936 51.6412 24.696C51.8572 25.032 51.9172 25.356 51.8212 25.668C51.7252 25.956 51.5332 26.184 51.2452 26.352C50.9812 26.52 50.6812 26.592 50.3452 26.568C50.0332 26.544 49.7812 26.364 49.5892 26.028C49.7332 26.484 49.6612 26.844 49.3732 27.108C49.0852 27.372 48.7492 27.48 48.3652 27.432C48.0052 27.36 47.7532 27.084 47.6092 26.604C47.7052 27.18 47.5972 27.576 47.2852 27.792C46.9732 28.032 46.6252 28.08 46.2412 27.936C45.8812 27.792 45.6652 27.444 45.5932 26.892C45.6412 27.924 45.2812 28.44 44.5132 28.44C43.7452 28.44 42.5212 27.84 40.8412 26.64ZM46.5292 20.988C46.2652 20.964 46.0732 20.772 45.9532 20.412C45.8572 20.052 45.8092 19.632 45.8092 19.152C45.8332 18.648 45.9052 18.204 46.0252 17.82C46.1452 17.436 46.3252 17.208 46.5652 17.136C46.3252 17.136 46.0852 16.968 45.8452 16.632C45.6292 16.296 45.4492 15.912 45.3052 15.48C45.1852 15.024 45.1372 14.628 45.1612 14.292C44.9452 14.484 44.6812 14.556 44.3692 14.508C44.0572 14.46 43.8172 14.304 43.6492 14.04C43.6252 14.232 43.5532 14.352 43.4332 14.4C43.3132 14.448 43.1812 14.424 43.0372 14.328C43.1092 14.664 43.0852 15.06 42.9652 15.516C42.8692 15.948 42.7132 16.332 42.4972 16.668C42.2812 17.004 42.0412 17.172 41.7772 17.172C42.0652 17.244 42.2452 17.448 42.3172 17.784C42.4132 18.12 42.4012 18.456 42.2812 18.792C42.1612 19.104 41.9452 19.26 41.6332 19.26C41.8972 19.212 42.1252 19.356 42.3172 19.692C42.5332 20.004 42.6772 20.376 42.7492 20.808C42.8452 21.24 42.8572 21.612 42.7852 21.924C43.1212 21.732 43.6252 21.624 44.2972 21.6C44.9692 21.576 45.7132 21.372 46.5292 20.988ZM58.2148 24.048C57.8308 24.048 57.5188 23.88 57.2788 23.544C57.0388 23.208 56.8828 22.8 56.8108 22.32C56.7388 21.816 56.7388 21.312 56.8108 20.808C56.8828 20.304 57.0388 19.884 57.2788 19.548C57.5188 19.212 57.8308 19.044 58.2148 19.044C57.7108 19.044 57.3388 18.864 57.0988 18.504C56.8588 18.144 56.7388 17.724 56.7388 17.244C56.7388 16.764 56.8588 16.344 57.0988 15.984C57.3388 15.624 57.7108 15.444 58.2148 15.444C57.7348 15.444 57.3748 15.228 57.1348 14.796C56.8948 14.364 56.7748 13.872 56.7748 13.32C56.7748 12.744 56.8948 12.24 57.1348 11.808C57.3748 11.376 57.7348 11.16 58.2148 11.16C57.7108 11.16 57.3628 11.04 57.1708 10.8C57.0028 10.56 57.0028 10.32 57.1708 10.08C57.3628 9.84002 57.7108 9.72002 58.2148 9.72002C58.2148 9.36002 58.3948 9.08402 58.7548 8.89202C59.1388 8.70002 59.5828 8.60402 60.0868 8.60402C60.5908 8.60402 61.0348 8.68802 61.4188 8.85602C61.8028 9.02402 61.9948 9.28802 61.9948 9.64802C62.1148 9.21602 62.3188 8.91602 62.6068 8.74802C62.9188 8.55602 63.2428 8.49602 63.5788 8.56802C63.9148 8.61602 64.1908 8.77202 64.4068 9.03602C64.6468 9.27602 64.7428 9.60002 64.6948 10.008C64.7908 9.72002 65.0308 9.50402 65.4148 9.36002C65.8228 9.21602 66.2548 9.15602 66.7108 9.18002C67.1908 9.18002 67.5988 9.26402 67.9348 9.43202C68.2948 9.60002 68.4868 9.85202 68.5108 10.188C68.4388 9.66002 68.6188 9.24002 69.0508 8.92802C69.5068 8.61602 70.0348 8.42402 70.6348 8.35202C71.2588 8.25602 71.8228 8.31602 72.3268 8.53202C72.8308 8.72402 73.1188 9.07202 73.1908 9.57602C73.6468 9.60002 73.9708 9.84002 74.1628 10.296C74.3788 10.752 74.4628 11.28 74.4148 11.88C74.3908 12.456 74.2588 12.972 74.0188 13.428C73.7788 13.86 73.4308 14.064 72.9748 14.04C73.3588 14.376 73.5148 14.712 73.4428 15.048C73.3708 15.384 73.1668 15.612 72.8308 15.732C72.5188 15.852 72.1708 15.744 71.7868 15.408C71.7868 15.768 71.6188 16.056 71.2828 16.272C70.9468 16.488 70.5268 16.632 70.0228 16.704C69.5428 16.752 69.0748 16.728 68.6188 16.632C68.1628 16.536 67.8148 16.356 67.5748 16.092C67.6468 16.452 67.5388 16.764 67.2508 17.028C66.9868 17.268 66.6868 17.352 66.3508 17.28C66.5668 17.664 66.6628 18.168 66.6388 18.792C66.6148 19.392 66.4708 19.932 66.2068 20.412C65.9668 20.868 65.6308 21.084 65.1988 21.06C65.6068 21.06 65.9188 21.204 66.1348 21.492C66.3508 21.78 66.4588 22.116 66.4588 22.5C66.4588 22.86 66.3508 23.184 66.1348 23.472C65.9188 23.76 65.6068 23.904 65.1988 23.904C65.5588 24.024 65.7868 24.252 65.8828 24.588C66.0028 24.9 66.0028 25.236 65.8828 25.596C65.7868 25.932 65.6068 26.208 65.3428 26.424C65.0788 26.64 64.7668 26.688 64.4068 26.568C64.4068 27.024 64.2028 27.36 63.7948 27.576C63.3868 27.816 62.9068 27.936 62.3548 27.936C61.8028 27.936 61.3108 27.816 60.8788 27.576C60.4708 27.36 60.2668 27.024 60.2668 26.568C60.2668 27.024 60.1708 27.348 59.9788 27.54C59.7868 27.756 59.5468 27.792 59.2588 27.648C58.9948 27.504 58.7548 27.144 58.5388 26.568C58.3468 25.992 58.2388 25.152 58.2148 24.048ZM77.0276 3.67202C76.5236 3.55202 76.1756 3.33602 75.9836 3.02402C75.7916 2.71202 75.7316 2.41202 75.8036 2.12402C75.8996 1.81202 76.1036 1.57202 76.4156 1.40402C76.7276 1.23602 77.1476 1.22402 77.6756 1.36802C77.6756 1.00802 77.8436 0.732017 78.1796 0.540017C78.5156 0.324017 78.9356 0.180016 79.4396 0.108016C79.9436 0.0360167 80.4476 0.0360167 80.9516 0.108016C81.4796 0.180016 81.9116 0.324017 82.2476 0.540017C82.5836 0.732017 82.7516 1.00802 82.7516 1.36802C83.2556 1.29602 83.6516 1.40402 83.9396 1.69202C84.2276 1.95602 84.4076 2.30402 84.4796 2.73602C84.5516 3.14402 84.4796 3.52802 84.2636 3.88802C84.0716 4.24802 83.7356 4.46402 83.2556 4.53602C83.3756 4.82402 83.2916 5.11202 83.0036 5.40002C82.7396 5.66402 82.3796 5.89202 81.9236 6.08402C81.4916 6.25202 81.0716 6.33602 80.6636 6.33602C80.2796 6.31202 80.0396 6.15602 79.9436 5.86802C79.9436 6.25202 79.7996 6.52802 79.5116 6.69602C79.2236 6.86402 78.8876 6.88802 78.5036 6.76802C78.1196 6.62402 77.7836 6.31202 77.4956 5.83202C77.2076 5.32802 77.0516 4.60802 77.0276 3.67202ZM76.8476 26.496C76.4636 26.496 76.1636 26.316 75.9476 25.956C75.7316 25.596 75.5756 25.152 75.4796 24.624C75.4076 24.096 75.4076 23.568 75.4796 23.04C75.5756 22.512 75.7316 22.08 75.9476 21.744C76.1636 21.384 76.4636 21.204 76.8476 21.204C76.3676 21.204 76.0076 21.012 75.7676 20.628C75.5276 20.22 75.4076 19.764 75.4076 19.26C75.4076 18.756 75.5276 18.312 75.7676 17.928C76.0076 17.52 76.3676 17.316 76.8476 17.316C76.4396 17.316 76.1156 17.136 75.8756 16.776C75.6356 16.416 75.4676 15.972 75.3716 15.444C75.2996 14.916 75.2996 14.388 75.3716 13.86C75.4676 13.332 75.6356 12.9 75.8756 12.564C76.1156 12.204 76.4396 12.024 76.8476 12.024C76.4156 12.024 76.0916 11.904 75.8756 11.664C75.6836 11.4 75.5756 11.112 75.5516 10.8C75.5516 10.464 75.6596 10.176 75.8756 9.93602C76.0916 9.69602 76.4156 9.57602 76.8476 9.57602C76.8476 9.14402 76.9916 8.83202 77.2796 8.64002C77.5916 8.42402 77.9396 8.32802 78.3236 8.35202C78.7316 8.35202 79.0796 8.46002 79.3676 8.67602C79.6556 8.89202 79.7996 9.21602 79.7996 9.64802C79.7996 9.28802 79.9316 9.02402 80.1956 8.85602C80.4596 8.68802 80.7716 8.60402 81.1316 8.60402C81.4916 8.60402 81.8036 8.68802 82.0676 8.85602C82.3556 9.02402 82.4996 9.28802 82.4996 9.64802C82.8596 9.36002 83.1716 9.27602 83.4356 9.39602C83.7236 9.51602 83.8796 9.72002 83.9036 10.008C83.9516 10.296 83.7956 10.584 83.4356 10.872C83.8676 10.872 84.1796 11.076 84.3716 11.484C84.5876 11.892 84.6956 12.36 84.6956 12.888C84.6956 13.416 84.5876 13.884 84.3716 14.292C84.1796 14.676 83.8676 14.868 83.4356 14.868C83.8196 14.868 84.1076 15.072 84.2996 15.48C84.4916 15.888 84.5876 16.356 84.5876 16.884C84.5876 17.412 84.4916 17.88 84.2996 18.288C84.1076 18.696 83.8196 18.9 83.4356 18.9C83.7236 18.9 83.9516 19.092 84.1196 19.476C84.3116 19.836 84.4316 20.304 84.4796 20.88C84.5516 21.432 84.5516 21.984 84.4796 22.536C84.4316 23.088 84.3116 23.556 84.1196 23.94C83.9516 24.3 83.7236 24.48 83.4356 24.48C83.9636 24.576 84.2876 24.816 84.4076 25.2C84.5276 25.56 84.4676 25.908 84.2276 26.244C83.9876 26.556 83.6036 26.664 83.0756 26.568C83.0756 27.168 82.9556 27.564 82.7156 27.756C82.4756 27.972 82.2356 27.972 81.9956 27.756C81.7556 27.564 81.6356 27.168 81.6356 26.568C81.6356 27.072 81.3956 27.456 80.9156 27.72C80.4596 27.984 79.9076 28.104 79.2596 28.08C78.6356 28.08 78.0836 27.948 77.6036 27.684C77.1236 27.42 76.8716 27.024 76.8476 26.496Z" fill="white"/>
</svg>
